<mxfile host="Electron" agent="Mozilla/5.0 (X11; Linux x86_64) AppleWebKit/537.36 (KHTML, like Gecko) draw.io/24.7.5 Chrome/126.0.6478.183 Electron/31.3.0 Safari/537.36" version="24.7.5">
  <diagram name="Page-1" id="8totw524eFmOk_7FE6oU">
    <mxGraphModel dx="1760" dy="1134" grid="1" gridSize="10" guides="1" tooltips="1" connect="1" arrows="1" fold="1" page="1" pageScale="1" pageWidth="827" pageHeight="1169" math="0" shadow="0">
      <root>
        <mxCell id="0" />
        <mxCell id="1" parent="0" />
        <mxCell id="2MARYtdhSuSS76VC_OMR-1" value="" style="rounded=1;whiteSpace=wrap;html=1;" vertex="1" parent="1">
          <mxGeometry x="50" y="130" width="740" height="60" as="geometry" />
        </mxCell>
        <mxCell id="2MARYtdhSuSS76VC_OMR-19" value="" style="edgeStyle=orthogonalEdgeStyle;rounded=0;orthogonalLoop=1;jettySize=auto;html=1;" edge="1" parent="1" source="2MARYtdhSuSS76VC_OMR-2" target="2MARYtdhSuSS76VC_OMR-18">
          <mxGeometry relative="1" as="geometry" />
        </mxCell>
        <mxCell id="2MARYtdhSuSS76VC_OMR-2" value="" style="whiteSpace=wrap;html=1;aspect=fixed;fillColor=#d5e8d4;strokeColor=#82b366;" vertex="1" parent="1">
          <mxGeometry x="60" y="135" width="50" height="50" as="geometry" />
        </mxCell>
        <mxCell id="2MARYtdhSuSS76VC_OMR-3" value="" style="whiteSpace=wrap;html=1;aspect=fixed;fillColor=#d5e8d4;strokeColor=#82b366;" vertex="1" parent="1">
          <mxGeometry x="120" y="135" width="50" height="50" as="geometry" />
        </mxCell>
        <mxCell id="2MARYtdhSuSS76VC_OMR-4" value="" style="whiteSpace=wrap;html=1;aspect=fixed;fillColor=#d5e8d4;strokeColor=#82b366;" vertex="1" parent="1">
          <mxGeometry x="180" y="135" width="50" height="50" as="geometry" />
        </mxCell>
        <mxCell id="2MARYtdhSuSS76VC_OMR-53" style="edgeStyle=orthogonalEdgeStyle;rounded=0;orthogonalLoop=1;jettySize=auto;html=1;entryX=0.5;entryY=0;entryDx=0;entryDy=0;" edge="1" parent="1" source="2MARYtdhSuSS76VC_OMR-5" target="2MARYtdhSuSS76VC_OMR-49">
          <mxGeometry relative="1" as="geometry" />
        </mxCell>
        <mxCell id="2MARYtdhSuSS76VC_OMR-5" value="" style="whiteSpace=wrap;html=1;aspect=fixed;fillColor=#d5e8d4;strokeColor=#82b366;" vertex="1" parent="1">
          <mxGeometry x="240" y="135" width="50" height="50" as="geometry" />
        </mxCell>
        <mxCell id="2MARYtdhSuSS76VC_OMR-6" value="" style="whiteSpace=wrap;html=1;aspect=fixed;fillColor=#d5e8d4;strokeColor=#82b366;" vertex="1" parent="1">
          <mxGeometry x="298.5" y="135" width="50" height="50" as="geometry" />
        </mxCell>
        <mxCell id="2MARYtdhSuSS76VC_OMR-46" style="edgeStyle=orthogonalEdgeStyle;rounded=0;orthogonalLoop=1;jettySize=auto;html=1;entryX=0.5;entryY=0;entryDx=0;entryDy=0;" edge="1" parent="1" source="2MARYtdhSuSS76VC_OMR-7" target="2MARYtdhSuSS76VC_OMR-42">
          <mxGeometry relative="1" as="geometry" />
        </mxCell>
        <mxCell id="2MARYtdhSuSS76VC_OMR-7" value="" style="whiteSpace=wrap;html=1;aspect=fixed;fillColor=#d5e8d4;strokeColor=#82b366;" vertex="1" parent="1">
          <mxGeometry x="358.5" y="135" width="50" height="50" as="geometry" />
        </mxCell>
        <mxCell id="2MARYtdhSuSS76VC_OMR-8" value="" style="whiteSpace=wrap;html=1;aspect=fixed;fillColor=#d5e8d4;strokeColor=#82b366;" vertex="1" parent="1">
          <mxGeometry x="418.5" y="135" width="50" height="50" as="geometry" />
        </mxCell>
        <mxCell id="2MARYtdhSuSS76VC_OMR-39" style="edgeStyle=orthogonalEdgeStyle;rounded=0;orthogonalLoop=1;jettySize=auto;html=1;entryX=0.5;entryY=0;entryDx=0;entryDy=0;" edge="1" parent="1" source="2MARYtdhSuSS76VC_OMR-9" target="2MARYtdhSuSS76VC_OMR-35">
          <mxGeometry relative="1" as="geometry" />
        </mxCell>
        <mxCell id="2MARYtdhSuSS76VC_OMR-9" value="" style="whiteSpace=wrap;html=1;aspect=fixed;fillColor=#d5e8d4;strokeColor=#82b366;" vertex="1" parent="1">
          <mxGeometry x="478.5" y="135" width="50" height="50" as="geometry" />
        </mxCell>
        <mxCell id="2MARYtdhSuSS76VC_OMR-10" value="" style="whiteSpace=wrap;html=1;aspect=fixed;fillColor=#d5e8d4;strokeColor=#82b366;" vertex="1" parent="1">
          <mxGeometry x="540" y="135" width="50" height="50" as="geometry" />
        </mxCell>
        <mxCell id="2MARYtdhSuSS76VC_OMR-11" value="" style="whiteSpace=wrap;html=1;aspect=fixed;fillColor=#d5e8d4;strokeColor=#82b366;" vertex="1" parent="1">
          <mxGeometry x="600" y="135" width="50" height="50" as="geometry" />
        </mxCell>
        <mxCell id="2MARYtdhSuSS76VC_OMR-32" style="edgeStyle=orthogonalEdgeStyle;rounded=1;orthogonalLoop=1;jettySize=auto;html=1;entryX=0.5;entryY=0;entryDx=0;entryDy=0;curved=0;" edge="1" parent="1" source="2MARYtdhSuSS76VC_OMR-12" target="2MARYtdhSuSS76VC_OMR-28">
          <mxGeometry relative="1" as="geometry" />
        </mxCell>
        <mxCell id="2MARYtdhSuSS76VC_OMR-12" value="" style="whiteSpace=wrap;html=1;aspect=fixed;fillColor=#d5e8d4;strokeColor=#82b366;" vertex="1" parent="1">
          <mxGeometry x="660" y="135" width="50" height="50" as="geometry" />
        </mxCell>
        <mxCell id="2MARYtdhSuSS76VC_OMR-13" value="" style="whiteSpace=wrap;html=1;aspect=fixed;fillColor=#d5e8d4;strokeColor=#82b366;" vertex="1" parent="1">
          <mxGeometry x="720" y="135" width="50" height="50" as="geometry" />
        </mxCell>
        <mxCell id="2MARYtdhSuSS76VC_OMR-20" style="edgeStyle=orthogonalEdgeStyle;rounded=1;orthogonalLoop=1;jettySize=auto;html=1;exitX=0.25;exitY=1;exitDx=0;exitDy=0;curved=0;" edge="1" parent="1" source="2MARYtdhSuSS76VC_OMR-18">
          <mxGeometry relative="1" as="geometry">
            <mxPoint x="30" y="370" as="targetPoint" />
          </mxGeometry>
        </mxCell>
        <mxCell id="2MARYtdhSuSS76VC_OMR-21" style="edgeStyle=orthogonalEdgeStyle;rounded=1;orthogonalLoop=1;jettySize=auto;html=1;exitX=0.75;exitY=1;exitDx=0;exitDy=0;curved=0;" edge="1" parent="1" source="2MARYtdhSuSS76VC_OMR-18">
          <mxGeometry relative="1" as="geometry">
            <mxPoint x="130" y="380" as="targetPoint" />
          </mxGeometry>
        </mxCell>
        <mxCell id="2MARYtdhSuSS76VC_OMR-18" value="" style="whiteSpace=wrap;html=1;aspect=fixed;fillColor=#E6FFCC;fontColor=#333333;strokeColor=#666666;" vertex="1" parent="1">
          <mxGeometry x="60" y="265" width="50" height="50" as="geometry" />
        </mxCell>
        <mxCell id="2MARYtdhSuSS76VC_OMR-22" value="" style="whiteSpace=wrap;html=1;aspect=fixed;" vertex="1" parent="1">
          <mxGeometry x="10" y="370" width="40" height="40" as="geometry" />
        </mxCell>
        <mxCell id="2MARYtdhSuSS76VC_OMR-24" style="edgeStyle=orthogonalEdgeStyle;rounded=1;orthogonalLoop=1;jettySize=auto;html=1;curved=0;" edge="1" parent="1" source="2MARYtdhSuSS76VC_OMR-23">
          <mxGeometry relative="1" as="geometry">
            <mxPoint x="110" y="470" as="targetPoint" />
          </mxGeometry>
        </mxCell>
        <mxCell id="2MARYtdhSuSS76VC_OMR-23" value="" style="whiteSpace=wrap;html=1;aspect=fixed;" vertex="1" parent="1">
          <mxGeometry x="110" y="380" width="40" height="40" as="geometry" />
        </mxCell>
        <mxCell id="2MARYtdhSuSS76VC_OMR-26" style="edgeStyle=orthogonalEdgeStyle;rounded=1;orthogonalLoop=1;jettySize=auto;html=1;exitX=0.25;exitY=1;exitDx=0;exitDy=0;curved=0;" edge="1" parent="1" source="2MARYtdhSuSS76VC_OMR-28">
          <mxGeometry relative="1" as="geometry">
            <mxPoint x="620" y="355" as="targetPoint" />
          </mxGeometry>
        </mxCell>
        <mxCell id="2MARYtdhSuSS76VC_OMR-27" style="edgeStyle=orthogonalEdgeStyle;rounded=1;orthogonalLoop=1;jettySize=auto;html=1;exitX=0.75;exitY=1;exitDx=0;exitDy=0;curved=0;" edge="1" parent="1" source="2MARYtdhSuSS76VC_OMR-28">
          <mxGeometry relative="1" as="geometry">
            <mxPoint x="720" y="365" as="targetPoint" />
          </mxGeometry>
        </mxCell>
        <mxCell id="2MARYtdhSuSS76VC_OMR-28" value="" style="whiteSpace=wrap;html=1;aspect=fixed;fillColor=#E6FFCC;fontColor=#333333;strokeColor=#666666;" vertex="1" parent="1">
          <mxGeometry x="650" y="250" width="50" height="50" as="geometry" />
        </mxCell>
        <mxCell id="2MARYtdhSuSS76VC_OMR-29" value="" style="whiteSpace=wrap;html=1;aspect=fixed;" vertex="1" parent="1">
          <mxGeometry x="600" y="355" width="40" height="40" as="geometry" />
        </mxCell>
        <mxCell id="2MARYtdhSuSS76VC_OMR-30" style="edgeStyle=orthogonalEdgeStyle;rounded=1;orthogonalLoop=1;jettySize=auto;html=1;curved=0;" edge="1" parent="1" source="2MARYtdhSuSS76VC_OMR-31">
          <mxGeometry relative="1" as="geometry">
            <mxPoint x="700" y="455" as="targetPoint" />
          </mxGeometry>
        </mxCell>
        <mxCell id="2MARYtdhSuSS76VC_OMR-31" value="" style="whiteSpace=wrap;html=1;aspect=fixed;" vertex="1" parent="1">
          <mxGeometry x="700" y="365" width="40" height="40" as="geometry" />
        </mxCell>
        <mxCell id="2MARYtdhSuSS76VC_OMR-33" style="edgeStyle=orthogonalEdgeStyle;rounded=1;orthogonalLoop=1;jettySize=auto;html=1;exitX=0.25;exitY=1;exitDx=0;exitDy=0;curved=0;dashed=1;entryX=0.5;entryY=0;entryDx=0;entryDy=0;" edge="1" parent="1" source="2MARYtdhSuSS76VC_OMR-35" target="2MARYtdhSuSS76VC_OMR-36">
          <mxGeometry relative="1" as="geometry">
            <mxPoint x="453.5" y="345" as="targetPoint" />
          </mxGeometry>
        </mxCell>
        <mxCell id="2MARYtdhSuSS76VC_OMR-34" style="edgeStyle=orthogonalEdgeStyle;rounded=1;orthogonalLoop=1;jettySize=auto;html=1;exitX=0.75;exitY=1;exitDx=0;exitDy=0;curved=0;dashed=1;entryX=0.5;entryY=0;entryDx=0;entryDy=0;" edge="1" parent="1" source="2MARYtdhSuSS76VC_OMR-35" target="2MARYtdhSuSS76VC_OMR-38">
          <mxGeometry relative="1" as="geometry">
            <mxPoint x="553.5" y="355" as="targetPoint" />
          </mxGeometry>
        </mxCell>
        <mxCell id="2MARYtdhSuSS76VC_OMR-35" value="" style="whiteSpace=wrap;html=1;aspect=fixed;fillColor=#E6FFCC;fontColor=#333333;strokeColor=#666666;dashed=1;" vertex="1" parent="1">
          <mxGeometry x="483.5" y="240" width="50" height="50" as="geometry" />
        </mxCell>
        <mxCell id="2MARYtdhSuSS76VC_OMR-36" value="" style="whiteSpace=wrap;html=1;aspect=fixed;dashed=1;" vertex="1" parent="1">
          <mxGeometry x="460" y="340" width="40" height="40" as="geometry" />
        </mxCell>
        <mxCell id="2MARYtdhSuSS76VC_OMR-37" style="edgeStyle=orthogonalEdgeStyle;rounded=1;orthogonalLoop=1;jettySize=auto;html=1;curved=0;dashed=1;" edge="1" parent="1" source="2MARYtdhSuSS76VC_OMR-38">
          <mxGeometry relative="1" as="geometry">
            <mxPoint x="550" y="400" as="targetPoint" />
          </mxGeometry>
        </mxCell>
        <mxCell id="2MARYtdhSuSS76VC_OMR-38" value="" style="whiteSpace=wrap;html=1;aspect=fixed;dashed=1;" vertex="1" parent="1">
          <mxGeometry x="510" y="325" width="40" height="40" as="geometry" />
        </mxCell>
        <mxCell id="2MARYtdhSuSS76VC_OMR-40" style="edgeStyle=orthogonalEdgeStyle;rounded=1;orthogonalLoop=1;jettySize=auto;html=1;exitX=0.25;exitY=1;exitDx=0;exitDy=0;curved=0;dashed=1;entryX=0.5;entryY=0;entryDx=0;entryDy=0;" edge="1" parent="1" source="2MARYtdhSuSS76VC_OMR-42" target="2MARYtdhSuSS76VC_OMR-43">
          <mxGeometry relative="1" as="geometry">
            <mxPoint x="331.75" y="345" as="targetPoint" />
          </mxGeometry>
        </mxCell>
        <mxCell id="2MARYtdhSuSS76VC_OMR-41" style="edgeStyle=orthogonalEdgeStyle;rounded=1;orthogonalLoop=1;jettySize=auto;html=1;exitX=0.75;exitY=1;exitDx=0;exitDy=0;curved=0;dashed=1;entryX=0.5;entryY=0;entryDx=0;entryDy=0;" edge="1" parent="1" source="2MARYtdhSuSS76VC_OMR-42" target="2MARYtdhSuSS76VC_OMR-45">
          <mxGeometry relative="1" as="geometry">
            <mxPoint x="431.75" y="355" as="targetPoint" />
          </mxGeometry>
        </mxCell>
        <mxCell id="2MARYtdhSuSS76VC_OMR-42" value="" style="whiteSpace=wrap;html=1;aspect=fixed;fillColor=#E6FFCC;fontColor=#333333;strokeColor=#666666;dashed=1;" vertex="1" parent="1">
          <mxGeometry x="361.75" y="240" width="50" height="50" as="geometry" />
        </mxCell>
        <mxCell id="2MARYtdhSuSS76VC_OMR-43" value="" style="whiteSpace=wrap;html=1;aspect=fixed;dashed=1;" vertex="1" parent="1">
          <mxGeometry x="338.25" y="340" width="40" height="40" as="geometry" />
        </mxCell>
        <mxCell id="2MARYtdhSuSS76VC_OMR-44" style="edgeStyle=orthogonalEdgeStyle;rounded=1;orthogonalLoop=1;jettySize=auto;html=1;curved=0;dashed=1;" edge="1" parent="1" source="2MARYtdhSuSS76VC_OMR-45">
          <mxGeometry relative="1" as="geometry">
            <mxPoint x="428.25" y="400" as="targetPoint" />
          </mxGeometry>
        </mxCell>
        <mxCell id="2MARYtdhSuSS76VC_OMR-45" value="" style="whiteSpace=wrap;html=1;aspect=fixed;dashed=1;" vertex="1" parent="1">
          <mxGeometry x="388.25" y="325" width="40" height="40" as="geometry" />
        </mxCell>
        <mxCell id="2MARYtdhSuSS76VC_OMR-47" style="edgeStyle=orthogonalEdgeStyle;rounded=1;orthogonalLoop=1;jettySize=auto;html=1;exitX=0.25;exitY=1;exitDx=0;exitDy=0;curved=0;dashed=1;entryX=0.5;entryY=0;entryDx=0;entryDy=0;" edge="1" parent="1" source="2MARYtdhSuSS76VC_OMR-49" target="2MARYtdhSuSS76VC_OMR-50">
          <mxGeometry relative="1" as="geometry">
            <mxPoint x="223.5" y="340" as="targetPoint" />
          </mxGeometry>
        </mxCell>
        <mxCell id="2MARYtdhSuSS76VC_OMR-48" style="edgeStyle=orthogonalEdgeStyle;rounded=1;orthogonalLoop=1;jettySize=auto;html=1;exitX=0.75;exitY=1;exitDx=0;exitDy=0;curved=0;dashed=1;entryX=0.5;entryY=0;entryDx=0;entryDy=0;" edge="1" parent="1" source="2MARYtdhSuSS76VC_OMR-49" target="2MARYtdhSuSS76VC_OMR-52">
          <mxGeometry relative="1" as="geometry">
            <mxPoint x="323.5" y="350" as="targetPoint" />
          </mxGeometry>
        </mxCell>
        <mxCell id="2MARYtdhSuSS76VC_OMR-49" value="" style="whiteSpace=wrap;html=1;aspect=fixed;fillColor=#E6FFCC;fontColor=#333333;strokeColor=#666666;dashed=1;" vertex="1" parent="1">
          <mxGeometry x="253.5" y="235" width="50" height="50" as="geometry" />
        </mxCell>
        <mxCell id="2MARYtdhSuSS76VC_OMR-50" value="" style="whiteSpace=wrap;html=1;aspect=fixed;dashed=1;" vertex="1" parent="1">
          <mxGeometry x="230" y="335" width="40" height="40" as="geometry" />
        </mxCell>
        <mxCell id="2MARYtdhSuSS76VC_OMR-51" style="edgeStyle=orthogonalEdgeStyle;rounded=1;orthogonalLoop=1;jettySize=auto;html=1;curved=0;dashed=1;" edge="1" parent="1" source="2MARYtdhSuSS76VC_OMR-52">
          <mxGeometry relative="1" as="geometry">
            <mxPoint x="320" y="395" as="targetPoint" />
          </mxGeometry>
        </mxCell>
        <mxCell id="2MARYtdhSuSS76VC_OMR-52" value="" style="whiteSpace=wrap;html=1;aspect=fixed;dashed=1;" vertex="1" parent="1">
          <mxGeometry x="280" y="320" width="40" height="40" as="geometry" />
        </mxCell>
        <mxCell id="2MARYtdhSuSS76VC_OMR-54" style="edgeStyle=orthogonalEdgeStyle;rounded=1;orthogonalLoop=1;jettySize=auto;html=1;exitX=0.25;exitY=1;exitDx=0;exitDy=0;curved=0;" edge="1" parent="1" source="2MARYtdhSuSS76VC_OMR-56">
          <mxGeometry relative="1" as="geometry">
            <mxPoint x="1030" y="267.5" as="targetPoint" />
          </mxGeometry>
        </mxCell>
        <mxCell id="2MARYtdhSuSS76VC_OMR-55" style="edgeStyle=orthogonalEdgeStyle;rounded=1;orthogonalLoop=1;jettySize=auto;html=1;exitX=0.75;exitY=1;exitDx=0;exitDy=0;curved=0;" edge="1" parent="1" source="2MARYtdhSuSS76VC_OMR-56">
          <mxGeometry relative="1" as="geometry">
            <mxPoint x="1130" y="277.5" as="targetPoint" />
          </mxGeometry>
        </mxCell>
        <mxCell id="2MARYtdhSuSS76VC_OMR-56" value="" style="whiteSpace=wrap;html=1;aspect=fixed;fillColor=#E6FFCC;fontColor=#333333;strokeColor=#666666;" vertex="1" parent="1">
          <mxGeometry x="1060" y="162.5" width="50" height="50" as="geometry" />
        </mxCell>
        <mxCell id="2MARYtdhSuSS76VC_OMR-57" value="" style="whiteSpace=wrap;html=1;aspect=fixed;" vertex="1" parent="1">
          <mxGeometry x="1010" y="267.5" width="40" height="40" as="geometry" />
        </mxCell>
        <mxCell id="2MARYtdhSuSS76VC_OMR-58" style="edgeStyle=orthogonalEdgeStyle;rounded=1;orthogonalLoop=1;jettySize=auto;html=1;curved=0;" edge="1" parent="1" source="2MARYtdhSuSS76VC_OMR-59">
          <mxGeometry relative="1" as="geometry">
            <mxPoint x="1110" y="367.5" as="targetPoint" />
          </mxGeometry>
        </mxCell>
        <mxCell id="2MARYtdhSuSS76VC_OMR-59" value="" style="whiteSpace=wrap;html=1;aspect=fixed;" vertex="1" parent="1">
          <mxGeometry x="1110" y="277.5" width="40" height="40" as="geometry" />
        </mxCell>
        <mxCell id="2MARYtdhSuSS76VC_OMR-60" value="An arbirtatry complex data structure" style="swimlane;horizontal=0;whiteSpace=wrap;html=1;" vertex="1" parent="1">
          <mxGeometry x="960" y="142.5" width="240" height="235" as="geometry" />
        </mxCell>
        <mxCell id="2MARYtdhSuSS76VC_OMR-61" value="" style="rounded=1;whiteSpace=wrap;html=1;" vertex="1" parent="1">
          <mxGeometry x="64" y="560" width="740" height="60" as="geometry" />
        </mxCell>
        <mxCell id="2MARYtdhSuSS76VC_OMR-62" value="" style="edgeStyle=orthogonalEdgeStyle;rounded=0;orthogonalLoop=1;jettySize=auto;html=1;" edge="1" parent="1" source="2MARYtdhSuSS76VC_OMR-63" target="2MARYtdhSuSS76VC_OMR-81">
          <mxGeometry relative="1" as="geometry" />
        </mxCell>
        <mxCell id="2MARYtdhSuSS76VC_OMR-63" value="" style="whiteSpace=wrap;html=1;aspect=fixed;fillColor=#fff2cc;strokeColor=#d6b656;" vertex="1" parent="1">
          <mxGeometry x="74" y="565" width="50" height="50" as="geometry" />
        </mxCell>
        <mxCell id="2MARYtdhSuSS76VC_OMR-64" value="" style="whiteSpace=wrap;html=1;aspect=fixed;fillColor=#fff2cc;strokeColor=#d6b656;" vertex="1" parent="1">
          <mxGeometry x="134" y="565" width="50" height="50" as="geometry" />
        </mxCell>
        <mxCell id="2MARYtdhSuSS76VC_OMR-65" value="" style="whiteSpace=wrap;html=1;aspect=fixed;fillColor=#fff2cc;strokeColor=#d6b656;" vertex="1" parent="1">
          <mxGeometry x="194" y="565" width="50" height="50" as="geometry" />
        </mxCell>
        <mxCell id="2MARYtdhSuSS76VC_OMR-66" style="edgeStyle=orthogonalEdgeStyle;rounded=0;orthogonalLoop=1;jettySize=auto;html=1;entryX=0.5;entryY=0;entryDx=0;entryDy=0;" edge="1" parent="1" source="2MARYtdhSuSS76VC_OMR-67" target="2MARYtdhSuSS76VC_OMR-105">
          <mxGeometry relative="1" as="geometry" />
        </mxCell>
        <mxCell id="2MARYtdhSuSS76VC_OMR-67" value="" style="whiteSpace=wrap;html=1;aspect=fixed;fillColor=#fff2cc;strokeColor=#d6b656;" vertex="1" parent="1">
          <mxGeometry x="254" y="565" width="50" height="50" as="geometry" />
        </mxCell>
        <mxCell id="2MARYtdhSuSS76VC_OMR-68" value="" style="whiteSpace=wrap;html=1;aspect=fixed;fillColor=#fff2cc;strokeColor=#d6b656;" vertex="1" parent="1">
          <mxGeometry x="312.5" y="565" width="50" height="50" as="geometry" />
        </mxCell>
        <mxCell id="2MARYtdhSuSS76VC_OMR-69" style="edgeStyle=orthogonalEdgeStyle;rounded=0;orthogonalLoop=1;jettySize=auto;html=1;entryX=0.5;entryY=0;entryDx=0;entryDy=0;" edge="1" parent="1" source="2MARYtdhSuSS76VC_OMR-70" target="2MARYtdhSuSS76VC_OMR-99">
          <mxGeometry relative="1" as="geometry" />
        </mxCell>
        <mxCell id="2MARYtdhSuSS76VC_OMR-70" value="" style="whiteSpace=wrap;html=1;aspect=fixed;fillColor=#fff2cc;strokeColor=#d6b656;" vertex="1" parent="1">
          <mxGeometry x="372.5" y="565" width="50" height="50" as="geometry" />
        </mxCell>
        <mxCell id="2MARYtdhSuSS76VC_OMR-71" value="" style="whiteSpace=wrap;html=1;aspect=fixed;fillColor=#fff2cc;strokeColor=#d6b656;" vertex="1" parent="1">
          <mxGeometry x="432.5" y="565" width="50" height="50" as="geometry" />
        </mxCell>
        <mxCell id="2MARYtdhSuSS76VC_OMR-72" style="edgeStyle=orthogonalEdgeStyle;rounded=0;orthogonalLoop=1;jettySize=auto;html=1;entryX=0.5;entryY=0;entryDx=0;entryDy=0;" edge="1" parent="1" source="2MARYtdhSuSS76VC_OMR-73" target="2MARYtdhSuSS76VC_OMR-93">
          <mxGeometry relative="1" as="geometry" />
        </mxCell>
        <mxCell id="2MARYtdhSuSS76VC_OMR-73" value="" style="whiteSpace=wrap;html=1;aspect=fixed;fillColor=#fff2cc;strokeColor=#d6b656;" vertex="1" parent="1">
          <mxGeometry x="492.5" y="565" width="50" height="50" as="geometry" />
        </mxCell>
        <mxCell id="2MARYtdhSuSS76VC_OMR-74" value="" style="whiteSpace=wrap;html=1;aspect=fixed;fillColor=#fff2cc;strokeColor=#d6b656;" vertex="1" parent="1">
          <mxGeometry x="554" y="565" width="50" height="50" as="geometry" />
        </mxCell>
        <mxCell id="2MARYtdhSuSS76VC_OMR-75" value="" style="whiteSpace=wrap;html=1;aspect=fixed;fillColor=#fff2cc;strokeColor=#d6b656;" vertex="1" parent="1">
          <mxGeometry x="614" y="565" width="50" height="50" as="geometry" />
        </mxCell>
        <mxCell id="2MARYtdhSuSS76VC_OMR-76" style="edgeStyle=orthogonalEdgeStyle;rounded=1;orthogonalLoop=1;jettySize=auto;html=1;entryX=0.5;entryY=0;entryDx=0;entryDy=0;curved=0;" edge="1" parent="1" source="2MARYtdhSuSS76VC_OMR-77" target="2MARYtdhSuSS76VC_OMR-87">
          <mxGeometry relative="1" as="geometry" />
        </mxCell>
        <mxCell id="2MARYtdhSuSS76VC_OMR-77" value="" style="whiteSpace=wrap;html=1;aspect=fixed;fillColor=#fff2cc;strokeColor=#d6b656;" vertex="1" parent="1">
          <mxGeometry x="674" y="565" width="50" height="50" as="geometry" />
        </mxCell>
        <mxCell id="2MARYtdhSuSS76VC_OMR-78" value="" style="whiteSpace=wrap;html=1;aspect=fixed;fillColor=#fff2cc;strokeColor=#d6b656;" vertex="1" parent="1">
          <mxGeometry x="734" y="565" width="50" height="50" as="geometry" />
        </mxCell>
        <mxCell id="2MARYtdhSuSS76VC_OMR-79" style="edgeStyle=orthogonalEdgeStyle;rounded=1;orthogonalLoop=1;jettySize=auto;html=1;exitX=0.25;exitY=1;exitDx=0;exitDy=0;curved=0;" edge="1" parent="1" source="2MARYtdhSuSS76VC_OMR-81">
          <mxGeometry relative="1" as="geometry">
            <mxPoint x="44" y="800" as="targetPoint" />
          </mxGeometry>
        </mxCell>
        <mxCell id="2MARYtdhSuSS76VC_OMR-80" style="edgeStyle=orthogonalEdgeStyle;rounded=1;orthogonalLoop=1;jettySize=auto;html=1;exitX=0.75;exitY=1;exitDx=0;exitDy=0;curved=0;" edge="1" parent="1" source="2MARYtdhSuSS76VC_OMR-81">
          <mxGeometry relative="1" as="geometry">
            <mxPoint x="144" y="810" as="targetPoint" />
          </mxGeometry>
        </mxCell>
        <mxCell id="2MARYtdhSuSS76VC_OMR-81" value="" style="whiteSpace=wrap;html=1;aspect=fixed;fillColor=#FFCCCC;fontColor=#333333;strokeColor=#666666;" vertex="1" parent="1">
          <mxGeometry x="74" y="695" width="50" height="50" as="geometry" />
        </mxCell>
        <mxCell id="2MARYtdhSuSS76VC_OMR-82" value="" style="whiteSpace=wrap;html=1;aspect=fixed;" vertex="1" parent="1">
          <mxGeometry x="24" y="800" width="40" height="40" as="geometry" />
        </mxCell>
        <mxCell id="2MARYtdhSuSS76VC_OMR-83" style="edgeStyle=orthogonalEdgeStyle;rounded=1;orthogonalLoop=1;jettySize=auto;html=1;curved=0;entryX=0.5;entryY=1;entryDx=0;entryDy=0;" edge="1" parent="1" source="2MARYtdhSuSS76VC_OMR-84" target="2MARYtdhSuSS76VC_OMR-106">
          <mxGeometry relative="1" as="geometry">
            <mxPoint x="124" y="900" as="targetPoint" />
          </mxGeometry>
        </mxCell>
        <mxCell id="2MARYtdhSuSS76VC_OMR-84" value="" style="whiteSpace=wrap;html=1;aspect=fixed;" vertex="1" parent="1">
          <mxGeometry x="124" y="810" width="40" height="40" as="geometry" />
        </mxCell>
        <mxCell id="2MARYtdhSuSS76VC_OMR-85" style="edgeStyle=orthogonalEdgeStyle;rounded=1;orthogonalLoop=1;jettySize=auto;html=1;exitX=0.25;exitY=1;exitDx=0;exitDy=0;curved=0;" edge="1" parent="1" source="2MARYtdhSuSS76VC_OMR-87">
          <mxGeometry relative="1" as="geometry">
            <mxPoint x="634" y="785" as="targetPoint" />
          </mxGeometry>
        </mxCell>
        <mxCell id="2MARYtdhSuSS76VC_OMR-86" style="edgeStyle=orthogonalEdgeStyle;rounded=1;orthogonalLoop=1;jettySize=auto;html=1;exitX=0.75;exitY=1;exitDx=0;exitDy=0;curved=0;" edge="1" parent="1" source="2MARYtdhSuSS76VC_OMR-87">
          <mxGeometry relative="1" as="geometry">
            <mxPoint x="734" y="795" as="targetPoint" />
          </mxGeometry>
        </mxCell>
        <mxCell id="2MARYtdhSuSS76VC_OMR-87" value="" style="whiteSpace=wrap;html=1;aspect=fixed;fillColor=#FFCCCC;fontColor=#333333;strokeColor=#666666;" vertex="1" parent="1">
          <mxGeometry x="664" y="680" width="50" height="50" as="geometry" />
        </mxCell>
        <mxCell id="2MARYtdhSuSS76VC_OMR-88" value="" style="whiteSpace=wrap;html=1;aspect=fixed;" vertex="1" parent="1">
          <mxGeometry x="619" y="785" width="40" height="40" as="geometry" />
        </mxCell>
        <mxCell id="2MARYtdhSuSS76VC_OMR-89" style="edgeStyle=orthogonalEdgeStyle;rounded=1;orthogonalLoop=1;jettySize=auto;html=1;curved=0;" edge="1" parent="1" source="2MARYtdhSuSS76VC_OMR-90">
          <mxGeometry relative="1" as="geometry">
            <mxPoint x="714" y="885" as="targetPoint" />
          </mxGeometry>
        </mxCell>
        <mxCell id="2MARYtdhSuSS76VC_OMR-90" value="" style="whiteSpace=wrap;html=1;aspect=fixed;" vertex="1" parent="1">
          <mxGeometry x="714" y="795" width="40" height="40" as="geometry" />
        </mxCell>
        <mxCell id="2MARYtdhSuSS76VC_OMR-91" style="edgeStyle=orthogonalEdgeStyle;rounded=1;orthogonalLoop=1;jettySize=auto;html=1;exitX=0.25;exitY=1;exitDx=0;exitDy=0;curved=0;dashed=1;entryX=0.5;entryY=0;entryDx=0;entryDy=0;" edge="1" parent="1" source="2MARYtdhSuSS76VC_OMR-93" target="2MARYtdhSuSS76VC_OMR-94">
          <mxGeometry relative="1" as="geometry">
            <mxPoint x="467.5" y="775" as="targetPoint" />
          </mxGeometry>
        </mxCell>
        <mxCell id="2MARYtdhSuSS76VC_OMR-92" style="edgeStyle=orthogonalEdgeStyle;rounded=1;orthogonalLoop=1;jettySize=auto;html=1;exitX=0.75;exitY=1;exitDx=0;exitDy=0;curved=0;dashed=1;entryX=0.5;entryY=0;entryDx=0;entryDy=0;" edge="1" parent="1" source="2MARYtdhSuSS76VC_OMR-93" target="2MARYtdhSuSS76VC_OMR-96">
          <mxGeometry relative="1" as="geometry">
            <mxPoint x="567.5" y="785" as="targetPoint" />
          </mxGeometry>
        </mxCell>
        <mxCell id="2MARYtdhSuSS76VC_OMR-93" value="" style="whiteSpace=wrap;html=1;aspect=fixed;fillColor=#FFCCCC;fontColor=#333333;strokeColor=#666666;dashed=1;" vertex="1" parent="1">
          <mxGeometry x="497.5" y="670" width="50" height="50" as="geometry" />
        </mxCell>
        <mxCell id="2MARYtdhSuSS76VC_OMR-94" value="" style="whiteSpace=wrap;html=1;aspect=fixed;dashed=1;" vertex="1" parent="1">
          <mxGeometry x="474" y="770" width="40" height="40" as="geometry" />
        </mxCell>
        <mxCell id="2MARYtdhSuSS76VC_OMR-95" style="edgeStyle=orthogonalEdgeStyle;rounded=1;orthogonalLoop=1;jettySize=auto;html=1;curved=0;dashed=1;entryX=0;entryY=0.5;entryDx=0;entryDy=0;exitX=0.5;exitY=1;exitDx=0;exitDy=0;" edge="1" parent="1" source="2MARYtdhSuSS76VC_OMR-96">
          <mxGeometry relative="1" as="geometry">
            <mxPoint x="640" y="825" as="targetPoint" />
            <mxPoint x="570" y="815" as="sourcePoint" />
            <Array as="points">
              <mxPoint x="570" y="795" />
              <mxPoint x="570" y="850" />
              <mxPoint x="640" y="850" />
            </Array>
          </mxGeometry>
        </mxCell>
        <mxCell id="2MARYtdhSuSS76VC_OMR-96" value="" style="whiteSpace=wrap;html=1;aspect=fixed;dashed=1;" vertex="1" parent="1">
          <mxGeometry x="524" y="755" width="40" height="40" as="geometry" />
        </mxCell>
        <mxCell id="2MARYtdhSuSS76VC_OMR-97" style="edgeStyle=orthogonalEdgeStyle;rounded=1;orthogonalLoop=1;jettySize=auto;html=1;exitX=0.25;exitY=1;exitDx=0;exitDy=0;curved=0;dashed=1;entryX=0.5;entryY=0;entryDx=0;entryDy=0;" edge="1" parent="1" source="2MARYtdhSuSS76VC_OMR-99" target="2MARYtdhSuSS76VC_OMR-100">
          <mxGeometry relative="1" as="geometry">
            <mxPoint x="345.75" y="775" as="targetPoint" />
          </mxGeometry>
        </mxCell>
        <mxCell id="2MARYtdhSuSS76VC_OMR-98" style="edgeStyle=orthogonalEdgeStyle;rounded=1;orthogonalLoop=1;jettySize=auto;html=1;exitX=0.75;exitY=1;exitDx=0;exitDy=0;curved=0;dashed=1;entryX=0.5;entryY=0;entryDx=0;entryDy=0;" edge="1" parent="1" source="2MARYtdhSuSS76VC_OMR-99" target="2MARYtdhSuSS76VC_OMR-102">
          <mxGeometry relative="1" as="geometry">
            <mxPoint x="445.75" y="785" as="targetPoint" />
          </mxGeometry>
        </mxCell>
        <mxCell id="2MARYtdhSuSS76VC_OMR-99" value="" style="whiteSpace=wrap;html=1;aspect=fixed;fillColor=#FFCCCC;fontColor=#333333;strokeColor=#666666;dashed=1;" vertex="1" parent="1">
          <mxGeometry x="375.75" y="670" width="50" height="50" as="geometry" />
        </mxCell>
        <mxCell id="2MARYtdhSuSS76VC_OMR-100" value="" style="whiteSpace=wrap;html=1;aspect=fixed;dashed=1;" vertex="1" parent="1">
          <mxGeometry x="352.25" y="770" width="40" height="40" as="geometry" />
        </mxCell>
        <mxCell id="2MARYtdhSuSS76VC_OMR-101" style="edgeStyle=orthogonalEdgeStyle;rounded=1;orthogonalLoop=1;jettySize=auto;html=1;curved=0;dashed=1;entryX=0.75;entryY=0;entryDx=0;entryDy=0;" edge="1" parent="1" source="2MARYtdhSuSS76VC_OMR-102" target="2MARYtdhSuSS76VC_OMR-109">
          <mxGeometry relative="1" as="geometry">
            <mxPoint x="442.25" y="830" as="targetPoint" />
            <Array as="points">
              <mxPoint x="420" y="860" />
              <mxPoint x="371" y="860" />
            </Array>
          </mxGeometry>
        </mxCell>
        <mxCell id="2MARYtdhSuSS76VC_OMR-102" value="" style="whiteSpace=wrap;html=1;aspect=fixed;dashed=1;" vertex="1" parent="1">
          <mxGeometry x="402.25" y="755" width="40" height="40" as="geometry" />
        </mxCell>
        <mxCell id="2MARYtdhSuSS76VC_OMR-103" style="edgeStyle=orthogonalEdgeStyle;rounded=1;orthogonalLoop=1;jettySize=auto;html=1;exitX=0.25;exitY=1;exitDx=0;exitDy=0;curved=0;dashed=1;entryX=0.5;entryY=0;entryDx=0;entryDy=0;" edge="1" parent="1" source="2MARYtdhSuSS76VC_OMR-105" target="2MARYtdhSuSS76VC_OMR-106">
          <mxGeometry relative="1" as="geometry">
            <mxPoint x="237.5" y="770" as="targetPoint" />
          </mxGeometry>
        </mxCell>
        <mxCell id="2MARYtdhSuSS76VC_OMR-104" style="edgeStyle=orthogonalEdgeStyle;rounded=1;orthogonalLoop=1;jettySize=auto;html=1;exitX=0.75;exitY=1;exitDx=0;exitDy=0;curved=0;dashed=1;entryX=0.5;entryY=0;entryDx=0;entryDy=0;" edge="1" parent="1" source="2MARYtdhSuSS76VC_OMR-105" target="2MARYtdhSuSS76VC_OMR-108">
          <mxGeometry relative="1" as="geometry">
            <mxPoint x="337.5" y="780" as="targetPoint" />
          </mxGeometry>
        </mxCell>
        <mxCell id="2MARYtdhSuSS76VC_OMR-105" value="" style="whiteSpace=wrap;html=1;aspect=fixed;fillColor=#FFCCCC;fontColor=#333333;strokeColor=#666666;dashed=1;" vertex="1" parent="1">
          <mxGeometry x="267.5" y="665" width="50" height="50" as="geometry" />
        </mxCell>
        <mxCell id="2MARYtdhSuSS76VC_OMR-106" value="" style="whiteSpace=wrap;html=1;aspect=fixed;dashed=1;" vertex="1" parent="1">
          <mxGeometry x="244" y="765" width="40" height="40" as="geometry" />
        </mxCell>
        <mxCell id="2MARYtdhSuSS76VC_OMR-110" style="edgeStyle=orthogonalEdgeStyle;rounded=1;orthogonalLoop=1;jettySize=auto;html=1;entryX=0.25;entryY=0;entryDx=0;entryDy=0;curved=0;" edge="1" parent="1" source="2MARYtdhSuSS76VC_OMR-108" target="2MARYtdhSuSS76VC_OMR-109">
          <mxGeometry relative="1" as="geometry" />
        </mxCell>
        <mxCell id="2MARYtdhSuSS76VC_OMR-108" value="" style="whiteSpace=wrap;html=1;aspect=fixed;dashed=1;" vertex="1" parent="1">
          <mxGeometry x="294" y="750" width="40" height="40" as="geometry" />
        </mxCell>
        <mxCell id="2MARYtdhSuSS76VC_OMR-109" value="" style="whiteSpace=wrap;html=1;aspect=fixed;" vertex="1" parent="1">
          <mxGeometry x="333.25" y="900" width="50" height="50" as="geometry" />
        </mxCell>
        <mxCell id="2MARYtdhSuSS76VC_OMR-111" value="" style="shape=cross;whiteSpace=wrap;html=1;rotation=45;fillColor=#FF6666;" vertex="1" parent="1">
          <mxGeometry x="754" y="504.99999999999994" width="167.68" height="160" as="geometry" />
        </mxCell>
        <mxCell id="2MARYtdhSuSS76VC_OMR-112" value="" style="verticalLabelPosition=bottom;verticalAlign=top;html=1;shape=mxgraph.basic.tick" vertex="1" parent="1">
          <mxGeometry x="760" y="70" width="110" height="100" as="geometry" />
        </mxCell>
        <mxCell id="2MARYtdhSuSS76VC_OMR-113" value="&lt;font style=&quot;font-size: 25px;&quot;&gt;No memory block in the DS should be pointed to by multiple pointers&lt;/font&gt;" style="text;html=1;align=center;verticalAlign=middle;whiteSpace=wrap;rounded=0;strokeWidth=1;strokeColor=default;" vertex="1" parent="1">
          <mxGeometry x="970" y="565" width="210" height="175" as="geometry" />
        </mxCell>
      </root>
    </mxGraphModel>
  </diagram>
</mxfile>
